<svg width="65" height="65" viewBox="0 0 65 65" fill="none" xmlns="http://www.w3.org/2000/svg">
<circle cx="32.5" cy="32.5" r="32.5" fill="white"/>
<path d="M33 23C34.083 23 35.1216 23.4302 35.8874 24.196C36.6531 24.9618 37.0833 26.0004 37.0833 27.0833C37.0833 28.1663 36.6531 29.2049 35.8874 29.9707C35.1216 30.7365 34.083 31.1667 33 31.1667C31.917 31.1667 30.8784 30.7365 30.1126 29.9707C29.3469 29.2049 28.9167 28.1663 28.9167 27.0833C28.9167 26.0004 29.3469 24.9618 30.1126 24.196C30.8784 23.4302 31.917 23 33 23ZM24.8333 25.9167C25.4867 25.9167 26.0933 26.0917 26.6183 26.4067C26.4433 28.075 26.9333 29.7317 27.9367 31.0267C27.3533 32.1467 26.1867 32.9167 24.8333 32.9167C23.9051 32.9167 23.0148 32.5479 22.3585 31.8915C21.7021 31.2352 21.3333 30.3449 21.3333 29.4167C21.3333 28.4884 21.7021 27.5982 22.3585 26.9418C23.0148 26.2854 23.9051 25.9167 24.8333 25.9167ZM41.1667 25.9167C42.0949 25.9167 42.9852 26.2854 43.6415 26.9418C44.2979 27.5982 44.6667 28.4884 44.6667 29.4167C44.6667 30.3449 44.2979 31.2352 43.6415 31.8915C42.9852 32.5479 42.0949 32.9167 41.1667 32.9167C39.8133 32.9167 38.6467 32.1467 38.0633 31.0267C39.0667 29.7317 39.5567 28.075 39.3817 26.4067C39.9067 26.0917 40.5133 25.9167 41.1667 25.9167ZM25.4167 37.875C25.4167 35.46 28.8117 33.5 33 33.5C37.1883 33.5 40.5833 35.46 40.5833 37.875V39.9167H25.4167V37.875ZM19 39.9167V38.1667C19 36.545 21.205 35.18 24.1917 34.7833C23.5033 35.5767 23.0833 36.6733 23.0833 37.875V39.9167H19ZM47 39.9167H42.9167V37.875C42.9167 36.6733 42.4967 35.5767 41.8083 34.7833C44.795 35.18 47 36.545 47 38.1667V39.9167Z" fill="#0C7C4A"/>
</svg>
