<svg width="70" height="74" viewBox="0 0 70 74" fill="none" xmlns="http://www.w3.org/2000/svg">
<path d="M39.2494 73.2611L33.5977 59.3631C39.0413 57.2584 44.1382 54.428 48.8537 51.1258L39.2494 73.2611ZM13.2796 38.0987L0 32.1839L21.1503 22.1323C17.9951 27.0674 15.2906 32.4016 13.2796 38.0987ZM68.6517 1.41222C68.6517 1.41222 51.4888 -6.28432 31.8641 14.2579C24.2708 22.2049 19.7287 30.9501 16.7815 38.6067C15.8107 41.3283 16.4695 44.3038 18.3765 46.3359L25.7617 54.0288C27.6687 56.0609 30.5119 56.7141 33.1123 55.698C40.5322 52.7225 48.7843 47.86 56.3776 39.9131C76.0023 19.3744 68.6517 1.41222 68.6517 1.41222ZM44.1382 27.0674C41.4337 24.2369 41.4337 19.6285 44.1382 16.798C46.8427 13.9676 51.2461 13.9676 53.9505 16.798C56.6203 19.6285 56.655 24.2369 53.9505 27.0674C51.2461 29.8978 46.8427 29.8978 44.1382 27.0674ZM15.36 72.5716L27.9808 59.3631C26.8019 59.0365 25.6577 58.4922 24.6175 57.7301L10.4711 72.5716H15.36ZM0.658779 72.5716H5.54761L22.0864 55.2989L17.1629 50.1824L0.658779 67.4551V72.5716ZM0.658779 62.3023L14.8399 47.4971C14.1117 46.4085 13.5917 45.2473 13.2796 43.9772L0.658779 57.1858V62.3023Z" fill="url(#paint0_linear_2_180)"/>
<defs>
<linearGradient id="paint0_linear_2_180" x1="35" y1="0" x2="35" y2="73.2611" gradientUnits="userSpaceOnUse">
<stop stop-color="#58DEA2"/>
<stop offset="1" stop-color="#10C222" stop-opacity="0.52"/>
</linearGradient>
</defs>
</svg>
