<svg width="60" height="60" viewBox="0 0 60 60" fill="none" xmlns="http://www.w3.org/2000/svg">
<path d="M60 30C60 37.9565 56.8393 45.5871 51.2132 51.2132C45.5871 56.8393 37.9565 60 30 60C26.0603 60 22.1593 59.224 18.5195 57.7164C14.8797 56.2087 11.5726 53.999 8.7868 51.2132C3.16071 45.5871 0 37.9565 0 30C0 22.0435 3.16071 14.4129 8.7868 8.7868C14.4129 3.16071 22.0435 0 30 0C33.9397 0 37.8407 0.775973 41.4805 2.28361C45.1203 3.79126 48.4274 6.00104 51.2132 8.7868C53.999 11.5726 56.2087 14.8797 57.7164 18.5195C59.224 22.1593 60 26.0603 60 30ZM12 33H36L25.5 43.5L29.76 47.76L47.52 30L29.76 12.24L25.5 16.5L36 27H12V33Z" fill="url(#paint0_linear_4_550)"/>
<defs>
<linearGradient id="paint0_linear_4_550" x1="30" y1="0" x2="30" y2="60" gradientUnits="userSpaceOnUse">
<stop stop-color="#41CE88"/>
<stop offset="1" stop-color="#41CE88" stop-opacity="0.44"/>
</linearGradient>
</defs>
</svg>
